<svg width="1600" height="1000" viewBox="0 0 1600 1000" fill="none" xmlns="http://www.w3.org/2000/svg">
  <defs>
    <linearGradient id="wall" x1="800" y1="0" x2="800" y2="1000" gradientUnits="userSpaceOnUse">
      <stop stop-color="#F8ECDC"/>
      <stop offset="1" stop-color="#E9D5BE"/>
    </linearGradient>
    <linearGradient id="shelf" x1="80" y1="0" x2="1520" y2="0" gradientUnits="userSpaceOnUse">
      <stop stop-color="#B7794B"/>
      <stop offset="1" stop-color="#8C5A3C"/>
    </linearGradient>
  </defs>
  <rect width="1600" height="1000" fill="url(#wall)"/>

  <g opacity="0.88">
    <rect x="80" y="140" width="1440" height="22" rx="11" fill="url(#shelf)"/>
    <rect x="80" y="340" width="1440" height="22" rx="11" fill="url(#shelf)"/>
    <rect x="80" y="540" width="1440" height="22" rx="11" fill="url(#shelf)"/>
    <rect x="80" y="740" width="1440" height="22" rx="11" fill="url(#shelf)"/>
  </g>

  <g opacity="0.82">
    <rect x="130" y="52" width="24" height="88" rx="6" fill="#DC2626"/>
    <rect x="160" y="44" width="20" height="96" rx="6" fill="#2563EB"/>
    <rect x="186" y="58" width="18" height="82" rx="5" fill="#F59E0B"/>
    <rect x="210" y="64" width="30" height="76" rx="6" fill="#16A34A"/>
    <rect x="246" y="40" width="20" height="100" rx="6" fill="#9333EA"/>
    <rect x="272" y="56" width="16" height="84" rx="5" fill="#0891B2"/>

    <rect x="432" y="246" width="26" height="94" rx="6" fill="#EF4444"/>
    <rect x="464" y="252" width="18" height="88" rx="5" fill="#3B82F6"/>
    <rect x="488" y="240" width="24" height="100" rx="6" fill="#EAB308"/>
    <rect x="518" y="254" width="16" height="86" rx="5" fill="#0EA5E9"/>
    <rect x="540" y="246" width="26" height="94" rx="6" fill="#22C55E"/>

    <rect x="936" y="442" width="22" height="98" rx="6" fill="#F97316"/>
    <rect x="964" y="452" width="16" height="88" rx="5" fill="#14B8A6"/>
    <rect x="986" y="438" width="30" height="102" rx="6" fill="#84CC16"/>
    <rect x="1022" y="452" width="18" height="88" rx="5" fill="#6366F1"/>
    <rect x="1046" y="444" width="24" height="96" rx="6" fill="#EC4899"/>

    <rect x="1242" y="652" width="20" height="88" rx="5" fill="#B45309"/>
    <rect x="1268" y="640" width="26" height="100" rx="6" fill="#D97706"/>
    <rect x="1300" y="654" width="16" height="86" rx="5" fill="#A16207"/>
    <rect x="1322" y="646" width="30" height="94" rx="6" fill="#EA580C"/>
    <rect x="1358" y="638" width="18" height="102" rx="6" fill="#7C2D12"/>
  </g>

  <g opacity="0.22">
    <rect x="118" y="0" width="8" height="1000" fill="#FFFFFF"/>
    <rect x="478" y="0" width="8" height="1000" fill="#FFFFFF"/>
    <rect x="838" y="0" width="8" height="1000" fill="#FFFFFF"/>
    <rect x="1198" y="0" width="8" height="1000" fill="#FFFFFF"/>
  </g>

  <g opacity="0.6">
    <circle cx="350" cy="124" r="14" fill="#65A30D"/>
    <rect x="342" y="126" width="16" height="14" rx="4" fill="#8B5A3C"/>
    <circle cx="780" cy="524" r="13" fill="#16A34A"/>
    <rect x="772" y="526" width="16" height="14" rx="4" fill="#8B5A3C"/>
    <circle cx="1180" cy="724" r="13" fill="#22C55E"/>
    <rect x="1172" y="726" width="16" height="14" rx="4" fill="#8B5A3C"/>
  </g>
</svg>
